HIERARCHY
ROOT Hips
{
    OFFSET 0.000000 0.000000 0.000000
    CHANNELS 6 Xposition Yposition Zposition Zrotation Xrotation Yrotation
    JOINT Spine
    {
        OFFSET -0.000000 14.517291 0.000000
        CHANNELS 3 Zrotation Xrotation Yrotation
        JOINT Spine1
        {
            OFFSET -0.000000 37.558300 0.000000
            CHANNELS 3 Zrotation Xrotation Yrotation
            JOINT Neck
            {
                OFFSET -0.000000 37.404057 3.400369
                CHANNELS 3 Zrotation Xrotation Yrotation
                JOINT Head
                {
                    OFFSET -0.000000 24.785618 -3.540803
                    CHANNELS 3 Zrotation Xrotation Yrotation
                    End Site
                    {
                        OFFSET -0.000000 35.408028 0.000000
                    }
                }
            }
            JOINT LeftShoulder
            {
                OFFSET 6.992933 33.973492 -0.192664
                CHANNELS 3 Zrotation Xrotation Yrotation
                JOINT LeftArm
                {
                    OFFSET 21.527611 0.000000 0.000000
                    CHANNELS 3 Zrotation Xrotation Yrotation
                    JOINT LeftForeArm
                    {
                        OFFSET 56.353916 0.000000 0.000000
                        CHANNELS 3 Zrotation Xrotation Yrotation
                        JOINT LeftHand
                        {
                            OFFSET 47.774071 0.000000 0.000000
                            CHANNELS 3 Zrotation Xrotation Yrotation
                            End Site
                            {
                                OFFSET 26.556021 0.000000 0.000000
                            }
                        }
                    }
                }
            }
            JOINT RightShoulder
            {
                OFFSET -7.065357 33.973492 -0.192664
                CHANNELS 3 Zrotation Xrotation Yrotation
                JOINT RightArm
                {
                    OFFSET -21.527611 0.000000 0.000000
                    CHANNELS 3 Zrotation Xrotation Yrotation
                    JOINT RightForeArm
                    {
                        OFFSET -56.353916 0.000000 0.000000
                        CHANNELS 3 Zrotation Xrotation Yrotation
                        JOINT RightHand
                        {
                            OFFSET -47.774071 0.000000 0.000000
                            CHANNELS 3 Zrotation Xrotation Yrotation
                            End Site
                            {
                                OFFSET -26.556021 0.000000 0.000000
                            }
                        }
                    }
                }
            }
        }
    }
    JOINT LeftUpLeg
    {
        OFFSET 17.704014 0.000000 0.000000
        CHANNELS 3 Zrotation Xrotation Yrotation
        JOINT LeftLeg
        {
            OFFSET -0.000000 -81.181816 0.000000
            CHANNELS 3 Zrotation Xrotation Yrotation
            JOINT LeftFoot
            {
                OFFSET -0.000000 -62.821102 0.000000
                CHANNELS 3 Zrotation Xrotation Yrotation
                JOINT LeftToeBase
                {
                    OFFSET -0.000000 -11.507608 26.556021
                    CHANNELS 3 Zrotation Xrotation Yrotation
                    End Site
                    {
                        OFFSET -0.000000 0.000000 7.081605
                    }
                }
            }
        }
    }
    JOINT RightUpLeg
    {
        OFFSET -17.704014 0.000000 0.000000
        CHANNELS 3 Zrotation Xrotation Yrotation
        JOINT RightLeg
        {
            OFFSET -0.000000 -81.181816 0.000000
            CHANNELS 3 Zrotation Xrotation Yrotation
            JOINT RightFoot
            {
                OFFSET -0.000000 -62.821102 0.000000
                CHANNELS 3 Zrotation Xrotation Yrotation
                JOINT RightToeBase
                {
                    OFFSET -0.000000 -11.507608 26.556021
                    CHANNELS 3 Zrotation Xrotation Yrotation
                    End Site
                    {
                        OFFSET -0.000000 0.000000 7.081605
                    }
                }
            }
        }
    }
}
MOTION
Frames:    5
Frame Time:    0.008333
-23.450510    151.927734    -18.184746    -12.868256    -30.214844    37.550587    0.679247    14.110223    -0.025907    5.233928    13.475095    -0.632716    32.299751    1.576107    2.605742    -5.026519    -14.398504    -3.081758    14.529594    7.344686    -24.006462    -32.042770    15.078543    -55.738739    -0.027687    -33.095539    -105.059296    -10.559778    -31.996157    -14.426446    13.744305    2.149604    -5.350043    20.742060    -5.856282    34.330578    -28.776514    -11.695456    54.582260    -5.568659    1.671143    35.940521    32.647404    -8.971293    0.860589    -8.988045    66.142464    -15.746553    17.649773    -31.905569    43.948231    0.000000    0.000000    0.000000    -88.908447    -50.475285    -57.658188    8.600243    22.667440    -4.953643    12.801445    20.893318    -18.217224    0.000000    0.000000    0.000000    
-23.463139    151.876419    -18.145554    -13.009721    -30.155987    37.502010    0.678775    14.063569    -0.058226    5.200530    13.469205    -0.637145    32.408779    1.590477    2.629774    -5.010055    -14.469641    -3.066966    14.628206    7.340105    -23.993004    -32.013283    15.090924    -55.763199    0.103918    -33.035767    -104.946472    -10.564974    -31.765673    -14.724574    13.844808    2.168290    -5.319627    20.686312    -5.831255    34.258442    -28.820276    -11.740466    54.541016    -5.557985    1.635929    36.008587    32.673241    -9.120203    0.832686    -8.974538    66.245384    -15.762499    17.797592    -31.895405    44.093296    0.000000    0.000000    0.000000    -89.030296    -50.499187    -57.780113    8.578467    22.705557    -4.937257    12.827848    20.901867    -18.230227    0.000000    0.000000    0.000000    
-23.469172    151.833282    -18.102312    -13.122992    -30.132162    37.463463    0.681610    14.070544    -0.084741    5.184957    13.442627    -0.642920    32.463898    1.606022    2.640375    -4.948639    -14.541313    -3.046038    14.691419    7.328475    -23.996592    -31.992800    15.098335    -55.775963    -0.056549    -33.084167    -105.089149    -10.665792    -32.001369    -14.473907    13.908718    2.222752    -5.311794    20.672783    -5.839839    34.219498    -28.846104    -11.785623    54.523544    -5.539444    1.605221    35.997486    32.693005    -9.225489    0.833454    -8.827312    66.350357    -15.898250    17.899939    -31.903780    44.214363    0.000000    0.000000    0.000000    -89.090935    -50.519272    -57.819607    8.565389    22.735838    -4.929688    12.870687    20.879564    -18.238190    0.000000    0.000000    0.000000    
-23.473804    151.784348    -18.054525    -13.224908    -30.132441    37.435947    0.698807    14.089759    -0.104971    5.180107    13.432747    -0.649312    32.517147    1.644596    2.634260    -4.925063    -14.654568    -3.047041    14.759444    7.354551    -23.991850    -31.974297    15.053954    -55.825771    -0.104758    -33.048279    -105.089058    -10.749544    -32.011700    -14.443532    13.957124    2.274065    -5.330123    20.649717    -5.825026    34.211040    -28.882986    -11.860330    54.477581    -5.547263    1.532204    35.989437    32.717026    -9.318845    0.813918    -8.669829    66.467529    -16.013300    17.953339    -31.938591    44.296055    0.000000    0.000000    0.000000    -89.114609    -50.528927    -57.837711    8.544505    22.766123    -4.906855    12.911177    20.851629    -18.243921    0.000000    0.000000    0.000000    
-23.474329    151.735184    -18.005016    -13.299762    -30.140171    37.412514    0.687563    14.122601    -0.100965    5.200033    13.437454    -0.650198    32.550987    1.688784    2.610645    -4.888427    -14.802763    -3.059526    14.799313    7.339335    -24.025850    -31.908819    15.071507    -55.838398    -0.080021    -33.116264    -105.088593    -10.741522    -32.051678    -14.470119    13.993256    2.295984    -5.359407    20.645464    -5.863552    34.196384    -28.869713    -11.869295    54.468964    -5.591648    1.499117    35.975201    32.730221    -9.392879    0.725743    -8.652410    66.578918    -15.963515    17.934557    -31.998030    44.337860    0.000000    0.000000    0.000000    -89.137054    -50.544449    -57.848404    8.526113    22.805578    -4.887395    12.924102    20.825401    -18.217737    0.000000    0.000000    0.000000    
